<svg xmlns="http://www.w3.org/2000/svg" viewBox="0 0 1200 630" fill="none">
  <defs>
    <linearGradient id="bg" x1="0%" y1="0%" x2="100%" y2="100%">
      <stop offset="0%" stop-color="#1E293B"/>
      <stop offset="100%" stop-color="#0F172A"/>
    </linearGradient>
  </defs>
  <rect width="1200" height="630" fill="url(#bg)"/>
  <g transform="translate(600, 240) scale(0.4) translate(-256, -256)">
    <path d="M128 448H384C419.3 448 448 419.3 448 384V128C448 92.7 419.3 64 384 64H128C92.7 64 64 92.7 64 128V384C64 419.3 92.7 448 128 448Z" fill="#3B82F6"/>
    <path d="M352 160H192C174.3 160 160 174.3 160 192V352" stroke="white" stroke-width="32" stroke-linecap="round" stroke-linejoin="round"/>
    <path d="M160 352H320C337.7 352 352 337.7 352 320V160" stroke="white" stroke-width="32" stroke-linecap="round" stroke-linejoin="round"/>
  </g>
  <text x="600" y="380" font-family="Inter, sans-serif" font-size="64" font-weight="bold" fill="white" text-anchor="middle">Crop Image</text>
  <text x="600" y="450" font-family="Inter, sans-serif" font-size="32" fill="#94A3B8" text-anchor="middle">Free Online Image Cropping Tool</text>
  <text x="600" y="520" font-family="Inter, sans-serif" font-size="24" fill="#64748B" text-anchor="middle">Crop • Rotate • Flip • Resize</text>
</svg>
